<svg xmlns="http://www.w3.org/2000/svg"  viewBox="0 0 48 48" width="27px" height="27px"><path d="M 20.5 6 C 12.509634 6 6 12.50964 6 20.5 C 6 28.49036 12.509634 35 20.5 35 C 23.956359 35 27.133709 33.779044 29.628906 31.75 L 39.439453 41.560547 A 1.50015 1.50015 0 1 0 41.560547 39.439453 L 31.75 29.628906 C 33.779044 27.133709 35 23.956357 35 20.5 C 35 12.50964 28.490366 6 20.5 6 z M 20.5 9 C 26.869047 9 32 14.130957 32 20.5 C 32 23.602612 30.776198 26.405717 28.791016 28.470703 A 1.50015 1.50015 0 0 0 28.470703 28.791016 C 26.405717 30.776199 23.602614 32 20.5 32 C 14.130953 32 9 26.869043 9 20.5 C 9 14.130957 14.130953 9 20.5 9 z M 20 12 C 16.141 12 13 14.916 13 18.5 L 13 25 C 13 25.553 13.447 26 14 26 C 14.553 26 15 25.553 15 25 L 15 18.5 C 15 16.019 17.243 14 20 14 C 22.944 14 25 15.645 25 18 C 25 18.553 25.447 19 26 19 C 26.553 19 27 18.553 27 18 C 27 14.523 24.056 12 20 12 z M 20 16 C 18.346 16 17 17.346 17 19 C 17 19.553 17.447 20 18 20 C 18.553 20 19 19.553 19 19 C 19 18.448 19.448 18 20 18 C 20.552 18 21 18.448 21 19 L 21 24 C 21 24.553 21.447 25 22 25 C 22.553 25 23 24.553 23 24 L 23 19 C 23 17.346 21.654 16 20 16 z M 26 21 C 25.447 21 25 21.447 25 22 L 25 26 C 25 26.553 25.447 27 26 27 C 26.553 27 27 26.553 27 26 L 27 22 C 27 21.447 26.553 21 26 21 z M 18 22 C 17.447 22 17 22.447 17 23 L 17 27 C 17 27.553 17.447 28 18 28 C 18.553 28 19 27.553 19 27 L 19 23 C 19 22.447 18.553 22 18 22 z"/></svg>