<svg xmlns="http://www.w3.org/2000/svg"  viewBox="0 0 48 48" width="20px" height="20px"><path d="M 5.5 7 C 3.5850452 7 2 8.5850452 2 10.5 L 2 37.5 C 2 39.414955 3.5850452 41 5.5 41 L 20.564453 41 C 21.25216 42.191787 22.523388 43 24 43 C 25.476612 43 26.74784 42.191787 27.435547 41 L 42.5 41 C 44.414955 41 46 39.414955 46 37.5 L 46 10.5 C 46 8.5850452 44.414955 7 42.5 7 L 28 7 C 26.415161 7 25.007083 7.7052607 24 8.7910156 C 22.992917 7.7052607 21.584839 7 20 7 L 5.5 7 z M 5.5 10 L 20 10 C 21.398226 10 22.5 11.101774 22.5 12.5 L 22.5 38 L 5.5 38 C 5.2049548 38 5 37.795045 5 37.5 L 5 10.5 C 5 10.204955 5.2049548 10 5.5 10 z M 28 10 L 42.5 10 C 42.795045 10 43 10.204955 43 10.5 L 43 37.5 C 43 37.795045 42.795045 38 42.5 38 L 25.5 38 L 25.5 12.5 C 25.5 11.101774 26.601774 10 28 10 z M 9.5 15.5 A 1.50015 1.50015 0 1 0 9.5 18.5 L 18 18.5 A 1.50015 1.50015 0 1 0 18 15.5 L 9.5 15.5 z M 30 15.5 A 1.50015 1.50015 0 1 0 30 18.5 L 38.5 18.5 A 1.50015 1.50015 0 1 0 38.5 15.5 L 30 15.5 z M 9.5 22.5 A 1.50015 1.50015 0 1 0 9.5 25.5 L 18 25.5 A 1.50015 1.50015 0 1 0 18 22.5 L 9.5 22.5 z M 30 22.5 A 1.50015 1.50015 0 1 0 30 25.5 L 38.5 25.5 A 1.50015 1.50015 0 1 0 38.5 22.5 L 30 22.5 z M 9.5 29.5 A 1.50015 1.50015 0 1 0 9.5 32.5 L 18 32.5 A 1.50015 1.50015 0 1 0 18 29.5 L 9.5 29.5 z M 30 29.5 A 1.50015 1.50015 0 1 0 30 32.5 L 36.5 32.5 A 1.50015 1.50015 0 1 0 36.5 29.5 L 30 29.5 z"/></svg>