<svg xmlns="http://www.w3.org/2000/svg" style="display:none">
<symbol id="analyzer" viewBox="0 0 48 48"><path d="M 20.5 6 C 12.509634 6 6 12.50964 6 20.5 C 6 28.49036 12.509634 35 20.5 35 C 23.956359 35 27.133709 33.779044 29.628906 31.75 L 39.439453 41.560547 A 1.50015 1.50015 0 1 0 41.560547 39.439453 L 31.75 29.628906 C 33.779044 27.133709 35 23.956357 35 20.5 C 35 12.50964 28.490366 6 20.5 6 z M 20.5 9 C 26.869047 9 32 14.130957 32 20.5 C 32 23.602612 30.776198 26.405717 28.791016 28.470703 A 1.50015 1.50015 0 0 0 28.470703 28.791016 C 26.405717 30.776199 23.602614 32 20.5 32 C 14.130953 32 9 26.869043 9 20.5 C 9 14.130957 14.130953 9 20.5 9 z M 20 12 C 16.141 12 13 14.916 13 18.5 L 13 25 C 13 25.553 13.447 26 14 26 C 14.553 26 15 25.553 15 25 L 15 18.5 C 15 16.019 17.243 14 20 14 C 22.944 14 25 15.645 25 18 C 25 18.553 25.447 19 26 19 C 26.553 19 27 18.553 27 18 C 27 14.523 24.056 12 20 12 z M 20 16 C 18.346 16 17 17.346 17 19 C 17 19.553 17.447 20 18 20 C 18.553 20 19 19.553 19 19 C 19 18.448 19.448 18 20 18 C 20.552 18 21 18.448 21 19 L 21 24 C 21 24.553 21.447 25 22 25 C 22.553 25 23 24.553 23 24 L 23 19 C 23 17.346 21.654 16 20 16 z M 26 21 C 25.447 21 25 21.447 25 22 L 25 26 C 25 26.553 25.447 27 26 27 C 26.553 27 27 26.553 27 26 L 27 22 C 27 21.447 26.553 21 26 21 z M 18 22 C 17.447 22 17 22.447 17 23 L 17 27 C 17 27.553 17.447 28 18 28 C 18.553 28 19 27.553 19 27 L 19 23 C 19 22.447 18.553 22 18 22 z"/></symbol>
<symbol id="arrow" viewBox="0 0 48 48"><path d="M 43.486328 11.978516 A 1.50015 1.50015 0 0 0 42.439453 12.439453 L 24 30.878906 L 5.5605469 12.439453 A 1.50015 1.50015 0 0 0 4.484375 11.984375 A 1.50015 1.50015 0 0 0 3.4394531 14.560547 L 22.939453 34.060547 A 1.50015 1.50015 0 0 0 25.060547 34.060547 L 44.560547 14.560547 A 1.50015 1.50015 0 0 0 43.486328 11.978516 z"/></symbol>
<symbol id="book" viewBox="0 0 48 48"><path d="M 5.5 7 C 3.5850452 7 2 8.5850452 2 10.5 L 2 37.5 C 2 39.414955 3.5850452 41 5.5 41 L 20.564453 41 C 21.25216 42.191787 22.523388 43 24 43 C 25.476612 43 26.74784 42.191787 27.435547 41 L 42.5 41 C 44.414955 41 46 39.414955 46 37.5 L 46 10.5 C 46 8.5850452 44.414955 7 42.5 7 L 28 7 C 26.415161 7 25.007083 7.7052607 24 8.7910156 C 22.992917 7.7052607 21.584839 7 20 7 L 5.5 7 z M 5.5 10 L 20 10 C 21.398226 10 22.5 11.101774 22.5 12.5 L 22.5 38 L 5.5 38 C 5.2049548 38 5 37.795045 5 37.5 L 5 10.5 C 5 10.204955 5.2049548 10 5.5 10 z M 28 10 L 42.5 10 C 42.795045 10 43 10.204955 43 10.5 L 43 37.5 C 43 37.795045 42.795045 38 42.5 38 L 25.5 38 L 25.5 12.5 C 25.5 11.101774 26.601774 10 28 10 z M 9.5 15.5 A 1.50015 1.50015 0 1 0 9.5 18.5 L 18 18.5 A 1.50015 1.50015 0 1 0 18 15.5 L 9.5 15.5 z M 30 15.5 A 1.50015 1.50015 0 1 0 30 18.5 L 38.5 18.5 A 1.50015 1.50015 0 1 0 38.5 15.5 L 30 15.5 z M 9.5 22.5 A 1.50015 1.50015 0 1 0 9.5 25.5 L 18 25.5 A 1.50015 1.50015 0 1 0 18 22.5 L 9.5 22.5 z M 30 22.5 A 1.50015 1.50015 0 1 0 30 25.5 L 38.5 25.5 A 1.50015 1.50015 0 1 0 38.5 22.5 L 30 22.5 z M 9.5 29.5 A 1.50015 1.50015 0 1 0 9.5 32.5 L 18 32.5 A 1.50015 1.50015 0 1 0 18 29.5 L 9.5 29.5 z M 30 29.5 A 1.50015 1.50015 0 1 0 30 32.5 L 36.5 32.5 A 1.50015 1.50015 0 1 0 36.5 29.5 L 30 29.5 z"/></symbol>
<symbol id="calendar" viewBox="0 0 48 48"><path d="M 12.5 6 C 8.9280619 6 6 8.9280619 6 12.5 L 6 35.5 C 6 39.071938 8.9280619 42 12.5 42 L 35.5 42 C 39.071938 42 42 39.071938 42 35.5 L 42 12.5 C 42 8.9280619 39.071938 6 35.5 6 L 12.5 6 z M 12.5 9 L 35.5 9 C 37.450062 9 39 10.549938 39 12.5 L 39 14 L 9 14 L 9 12.5 C 9 10.549938 10.549938 9 12.5 9 z M 9 17 L 39 17 L 39 35.5 C 39 37.450062 37.450062 39 35.5 39 L 12.5 39 C 10.549938 39 9 37.450062 9 35.5 L 9 17 z M 15.5 21 A 2.5 2.5 0 0 0 15.5 26 A 2.5 2.5 0 0 0 15.5 21 z M 24 21 A 2.5 2.5 0 0 0 24 26 A 2.5 2.5 0 0 0 24 21 z M 32.5 21 A 2.5 2.5 0 0 0 32.5 26 A 2.5 2.5 0 0 0 32.5 21 z M 15.5 30 A 2.5 2.5 0 0 0 15.5 35 A 2.5 2.5 0 0 0 15.5 30 z M 24 30 A 2.5 2.5 0 0 0 24 35 A 2.5 2.5 0 0 0 24 30 z"/></symbol>
<symbol id="home" viewBox="0 0 48 48"><path d="M 23.951172 4 A 1.50015 1.50015 0 0 0 23.072266 4.3222656 L 8.859375 15.519531 C 7.0554772 16.941163 6 19.113506 6 21.410156 L 6 40.5 C 6 41.863594 7.1364058 43 8.5 43 L 18.5 43 C 19.863594 43 21 41.863594 21 40.5 L 21 30.5 C 21 30.204955 21.204955 30 21.5 30 L 26.5 30 C 26.795045 30 27 30.204955 27 30.5 L 27 40.5 C 27 41.863594 28.136406 43 29.5 43 L 39.5 43 C 40.863594 43 42 41.863594 42 40.5 L 42 21.410156 C 42 19.113506 40.944523 16.941163 39.140625 15.519531 L 24.927734 4.3222656 A 1.50015 1.50015 0 0 0 23.951172 4 z M 24 7.4101562 L 37.285156 17.876953 C 38.369258 18.731322 39 20.030807 39 21.410156 L 39 40 L 30 40 L 30 30.5 C 30 28.585045 28.414955 27 26.5 27 L 21.5 27 C 19.585045 27 18 28.585045 18 30.5 L 18 40 L 9 40 L 9 21.410156 C 9 20.030807 9.6307412 18.731322 10.714844 17.876953 L 24 7.4101562 z"/></symbol>
<symbol id="menu" viewBox="0 0 48 48"><path d="M 5.5 9 A 1.50015 1.50015 0 1 0 5.5 12 L 42.5 12 A 1.50015 1.50015 0 1 0 42.5 9 L 5.5 9 z M 5.5 22.5 A 1.50015 1.50015 0 1 0 5.5 25.5 L 42.5 25.5 A 1.50015 1.50015 0 1 0 42.5 22.5 L 5.5 22.5 z M 5.5 36 A 1.50015 1.50015 0 1 0 5.5 39 L 42.5 39 A 1.50015 1.50015 0 1 0 42.5 36 L 5.5 36 z"/></symbol>
<symbol id="minus" viewBox="0 0 48 48"><path d="M 6.5 22.5 A 1.50015 1.50015 0 1 0 6.5 25.5 L 41.5 25.5 A 1.50015 1.50015 0 1 0 41.5 22.5 L 6.5 22.5 z"/></symbol>
<symbol id="plus" viewBox="0 0 48 48"><path d="M 23.976562 4.9785156 A 1.50015 1.50015 0 0 0 22.5 6.5 L 22.5 22.5 L 6.5 22.5 A 1.50015 1.50015 0 1 0 6.5 25.5 L 22.5 25.5 L 22.5 41.5 A 1.50015 1.50015 0 1 0 25.5 41.5 L 25.5 25.5 L 41.5 25.5 A 1.50015 1.50015 0 1 0 41.5 22.5 L 25.5 22.5 L 25.5 6.5 A 1.50015 1.50015 0 0 0 23.976562 4.9785156 z"/></symbol>
<symbol id="setting" viewBox="0 0 48 48"><path d="M 24 4 C 22.423103 4 20.902664 4.1994284 19.451172 4.5371094 A 1.50015 1.50015 0 0 0 18.300781 5.8359375 L 17.982422 8.7382812 C 17.878304 9.6893592 17.328913 10.530853 16.5 11.009766 C 15.672739 11.487724 14.66862 11.540667 13.792969 11.15625 L 13.791016 11.15625 L 11.125 9.9824219 A 1.50015 1.50015 0 0 0 9.4257812 10.330078 C 7.3532865 12.539588 5.7626807 15.215064 4.859375 18.201172 A 1.50015 1.50015 0 0 0 5.4082031 19.845703 L 7.7734375 21.580078 C 8.5457929 22.147918 9 23.042801 9 24 C 9 24.95771 8.5458041 25.853342 7.7734375 26.419922 L 5.4082031 28.152344 A 1.50015 1.50015 0 0 0 4.859375 29.796875 C 5.7625845 32.782665 7.3519262 35.460112 9.4257812 37.669922 A 1.50015 1.50015 0 0 0 11.125 38.015625 L 13.791016 36.841797 C 14.667094 36.456509 15.672169 36.511947 16.5 36.990234 C 17.328913 37.469147 17.878304 38.310641 17.982422 39.261719 L 18.300781 42.164062 A 1.50015 1.50015 0 0 0 19.449219 43.460938 C 20.901371 43.799844 22.423103 44 24 44 C 25.576897 44 27.097336 43.800572 28.548828 43.462891 A 1.50015 1.50015 0 0 0 29.699219 42.164062 L 30.017578 39.261719 C 30.121696 38.310641 30.671087 37.469147 31.5 36.990234 C 32.327261 36.512276 33.33138 36.45738 34.207031 36.841797 L 36.875 38.015625 A 1.50015 1.50015 0 0 0 38.574219 37.669922 C 40.646713 35.460412 42.237319 32.782983 43.140625 29.796875 A 1.50015 1.50015 0 0 0 42.591797 28.152344 L 40.226562 26.419922 C 39.454197 25.853342 39 24.95771 39 24 C 39 23.04229 39.454197 22.146658 40.226562 21.580078 L 42.591797 19.847656 A 1.50015 1.50015 0 0 0 43.140625 18.203125 C 42.237319 15.217017 40.646713 12.539588 38.574219 10.330078 A 1.50015 1.50015 0 0 0 36.875 9.984375 L 34.207031 11.158203 C 33.33138 11.54262 32.327261 11.487724 31.5 11.009766 C 30.671087 10.530853 30.121696 9.6893592 30.017578 8.7382812 L 29.699219 5.8359375 A 1.50015 1.50015 0 0 0 28.550781 4.5390625 C 27.098629 4.2001555 25.576897 4 24 4 z M 24 7 C 24.974302 7 25.90992 7.1748796 26.847656 7.3398438 L 27.035156 9.0644531 C 27.243038 10.963375 28.346913 12.652335 30 13.607422 C 31.654169 14.563134 33.668094 14.673009 35.416016 13.904297 L 37.001953 13.207031 C 38.219788 14.669402 39.183985 16.321182 39.857422 18.130859 L 38.451172 19.162109 C 36.911538 20.291529 36 22.08971 36 24 C 36 25.91029 36.911538 27.708471 38.451172 28.837891 L 39.857422 29.869141 C 39.183985 31.678818 38.219788 33.330598 37.001953 34.792969 L 35.416016 34.095703 C 33.668094 33.326991 31.654169 33.436866 30 34.392578 C 28.346913 35.347665 27.243038 37.036625 27.035156 38.935547 L 26.847656 40.660156 C 25.910002 40.82466 24.973817 41 24 41 C 23.025698 41 22.09008 40.82512 21.152344 40.660156 L 20.964844 38.935547 C 20.756962 37.036625 19.653087 35.347665 18 34.392578 C 16.345831 33.436866 14.331906 33.326991 12.583984 34.095703 L 10.998047 34.792969 C 9.7799772 33.330806 8.8159425 31.678964 8.1425781 29.869141 L 9.5488281 28.837891 C 11.088462 27.708471 12 25.91029 12 24 C 12 22.08971 11.087719 20.290363 9.5488281 19.160156 L 8.1425781 18.128906 C 8.8163325 16.318532 9.7814501 14.667839 11 13.205078 L 12.583984 13.902344 C 14.331906 14.671056 16.345831 14.563134 18 13.607422 C 19.653087 12.652335 20.756962 10.963375 20.964844 9.0644531 L 21.152344 7.3398438 C 22.089998 7.1753403 23.026183 7 24 7 z M 24 16 C 19.599487 16 16 19.59949 16 24 C 16 28.40051 19.599487 32 24 32 C 28.400513 32 32 28.40051 32 24 C 32 19.59949 28.400513 16 24 16 z M 24 19 C 26.779194 19 29 21.220808 29 24 C 29 26.779192 26.779194 29 24 29 C 21.220806 29 19 26.779192 19 24 C 19 21.220808 21.220806 19 24 19 z"/></symbol>
<symbol id="timetable" viewBox="0 0 48 48"><path d="M 11.5 0 C 5.1664891 0 0 5.1664939 0 11.5 C 0 17.833506 5.1664891 23 11.5 23 C 17.833511 23 23 17.833506 23 11.5 C 23 5.1664939 17.833511 0 11.5 0 z M 11.5 3 C 16.212192 3 20 6.7878114 20 11.5 C 20 16.212189 16.212192 20 11.5 20 C 6.7878084 20 3 16.212189 3 11.5 C 3 6.7878114 6.7878084 3 11.5 3 z M 11.476562 4.9785156 A 1.50015 1.50015 0 0 0 10 6.5 L 10 11.5 A 1.50015 1.50015 0 0 0 10.439453 12.560547 L 12.439453 14.560547 A 1.50015 1.50015 0 1 0 14.560547 12.439453 L 13 10.878906 L 13 6.5 A 1.50015 1.50015 0 0 0 11.476562 4.9785156 z M 23.820312 6 C 24.244312 6.948 24.563766 7.952 24.759766 9 L 35.5 9 C 37.43 9 39 10.57 39 12.5 L 39 14 L 24.759766 14 C 24.562766 15.048 24.243313 16.052 23.820312 17 L 39 17 L 39 35.5 C 39 37.43 37.43 39 35.5 39 L 12.5 39 C 10.57 39 9 37.43 9 35.5 L 9 24.759766 C 7.952 24.562766 6.948 24.243313 6 23.820312 L 6 35.5 C 6 39.084 8.916 42 12.5 42 L 35.5 42 C 39.084 42 42 39.084 42 35.5 L 42 12.5 C 42 8.916 39.084 6 35.5 6 L 23.820312 6 z M 24 21 A 2.5 2.5 0 0 0 24 26 A 2.5 2.5 0 0 0 24 21 z M 32.5 21 A 2.5 2.5 0 0 0 32.5 26 A 2.5 2.5 0 0 0 32.5 21 z M 15.5 30 A 2.5 2.5 0 0 0 15.5 35 A 2.5 2.5 0 0 0 15.5 30 z M 24 30 A 2.5 2.5 0 0 0 24 35 A 2.5 2.5 0 0 0 24 30 z"/></symbol>
<symbol id="tools" viewBox="0 0 48 48"><path d="M 9.4511719 6 A 1.50015 1.50015 0 0 0 8.4394531 6.4394531 L 6.4394531 8.4394531 A 1.50015 1.50015 0 0 0 6.234375 10.306641 L 10.087891 16.355469 C 11.171478 18.08889 13.518545 18.411728 15.111328 17.232422 L 22.925781 25.046875 C 21.589425 27.348821 21.794269 30.320933 23.748047 32.296875 L 23.746094 32.296875 L 31.660156 40.318359 A 1.50015 1.50015 0 0 0 31.664062 40.320312 C 34.00416 42.677607 37.855811 42.691448 40.212891 40.351562 C 42.568383 38.013264 42.585508 34.161053 40.248047 31.804688 L 40.244141 31.800781 L 32.345703 23.794922 A 1.50015 1.50015 0 0 0 32.34375 23.794922 C 30.373634 21.803489 27.371608 21.58035 25.048828 22.927734 L 17.232422 15.111328 C 18.409993 13.519538 18.089252 11.174656 16.359375 10.089844 L 10.306641 6.234375 A 1.50015 1.50015 0 0 0 9.4511719 6 z M 31.414062 6 C 25.796062 6 21.207453 10.438234 20.939453 15.990234 L 24.138672 19.1875 C 24.218672 18.9265 24.231156 18.646047 24.160156 18.373047 C 23.996156 17.736047 23.914062 17.106 23.914062 16.5 C 23.914062 12.364 27.278063 9 31.414062 9 C 31.797062 9 32.176781 9.0298906 32.550781 9.0878906 L 29.318359 12.318359 C 28.467359 13.168359 28 14.298 28 15.5 C 28 16.702 28.468359 17.831641 29.318359 18.681641 C 30.168359 19.531641 31.298 20 32.5 20 C 33.702 20 34.831641 19.531641 35.681641 18.681641 L 38.849609 15.515625 C 38.893609 15.840625 38.914062 16.169 38.914062 16.5 C 38.914062 19.479 37.166578 22.071344 34.642578 23.277344 L 36.828125 25.490234 C 39.873125 23.650234 41.914062 20.308047 41.914062 16.498047 C 41.914062 14.955047 41.578063 13.458875 40.914062 12.046875 C 40.706063 11.604875 40.296453 11.289078 39.814453 11.205078 C 39.335453 11.121078 38.841094 11.278047 38.496094 11.623047 L 33.560547 16.558594 C 32.994547 17.124594 32.005453 17.125594 31.439453 16.558594 C 31.156453 16.276594 31 15.9 31 15.5 C 31 15.1 31.156453 14.723453 31.439453 14.439453 L 36.404297 9.4726562 C 36.747297 9.1296563 36.904219 8.6430625 36.824219 8.1640625 C 36.744219 7.6860625 36.436953 7.2755 36.001953 7.0625 C 34.551953 6.3575 33.009062 6 31.414062 6 z M 9.7089844 9.4121094 L 14.753906 12.625 A 1.50015 1.50015 0 0 0 14.765625 12.630859 C 15.06549 12.818206 15.104028 13.157691 14.853516 13.408203 L 13.408203 14.853516 C 13.156866 15.105129 12.819986 15.068171 12.630859 14.765625 A 1.50015 1.50015 0 0 0 12.625 14.753906 L 9.4121094 9.7089844 L 9.7089844 9.4121094 z M 17.212891 22.162109 L 7.7558594 31.693359 C 6.6178594 32.839359 5.994 34.361562 6 35.976562 C 6.006 37.591563 6.6411562 39.107141 7.7851562 40.244141 C 8.9261563 41.377141 10.436922 42 12.044922 42 L 12.066406 42 C 13.681406 41.994 15.197938 41.359891 16.335938 40.212891 L 22.552734 33.945312 L 22.203125 33.59375 C 21.590125 32.97375 21.109281 32.267625 20.738281 31.515625 L 14.207031 38.099609 C 13.634031 38.676609 12.869641 38.997 12.056641 39 C 11.204641 38.986 10.477391 38.689234 9.9003906 38.115234 C 9.3223906 37.542234 9.003 36.778844 9 35.964844 C 8.997 35.151844 9.3117656 34.385594 9.8847656 33.808594 L 19.333984 24.283203 L 17.212891 22.162109 z M 28.058594 24.990234 C 28.835631 24.993734 29.612259 25.299186 30.210938 25.904297 L 38.111328 33.912109 A 1.50015 1.50015 0 0 0 38.115234 33.916016 C 39.311788 35.12001 39.304792 37.026276 38.099609 38.222656 C 36.892689 39.420772 34.990872 39.413742 33.792969 38.207031 L 25.880859 30.189453 A 1.50015 1.50015 0 0 0 25.880859 30.1875 C 24.687081 28.980179 24.696265 27.080094 25.900391 25.884766 C 26.504476 25.285082 27.281557 24.98673 28.058594 24.990234 z"/></symbol>
<symbol id="tracker" viewBox="0 0 48 48"><path d="M 20.5 4 C 18.203405 4 16.305701 5.7666235 16.050781 8 L 12.5 8 C 10.032499 8 8 10.032499 8 12.5 L 8 39.5 C 8 41.967501 10.032499 44 12.5 44 L 35.5 44 C 37.967501 44 40 41.967501 40 39.5 L 40 12.5 C 40 10.032499 37.967501 8 35.5 8 L 31.949219 8 C 31.694299 5.7666235 29.796595 4 27.5 4 L 20.5 4 z M 20.5 7 L 27.5 7 C 28.346499 7 29 7.6535009 29 8.5 C 29 9.3464991 28.346499 10 27.5 10 L 20.5 10 C 19.653501 10 19 9.3464991 19 8.5 C 19 7.6535009 19.653501 7 20.5 7 z M 12.5 11 L 16.769531 11 C 17.581237 12.2019 18.954719 13 20.5 13 L 27.5 13 C 29.045281 13 30.418763 12.2019 31.230469 11 L 35.5 11 C 36.346499 11 37 11.653501 37 12.5 L 37 39.5 C 37 40.346499 36.346499 41 35.5 41 L 12.5 41 C 11.653501 41 11 40.346499 11 39.5 L 11 12.5 C 11 11.653501 11.653501 11 12.5 11 z M 32.470703 18.986328 A 1.50015 1.50015 0 0 0 31.439453 19.439453 L 28.5 22.378906 L 27.560547 21.439453 A 1.50015 1.50015 0 1 0 25.439453 23.560547 L 27.439453 25.560547 A 1.50015 1.50015 0 0 0 29.560547 25.560547 L 33.560547 21.560547 A 1.50015 1.50015 0 0 0 32.470703 18.986328 z M 15.5 21 A 1.50015 1.50015 0 1 0 15.5 24 L 21.5 24 A 1.50015 1.50015 0 1 0 21.5 21 L 15.5 21 z M 32.486328 27.978516 A 1.50015 1.50015 0 0 0 31.439453 28.439453 L 30 29.878906 L 28.560547 28.439453 A 1.50015 1.50015 0 0 0 27.484375 27.984375 A 1.50015 1.50015 0 0 0 26.439453 30.560547 L 27.878906 32 L 26.439453 33.439453 A 1.50015 1.50015 0 1 0 28.560547 35.560547 L 30 34.121094 L 31.439453 35.560547 A 1.50015 1.50015 0 1 0 33.560547 33.439453 L 32.121094 32 L 33.560547 30.560547 A 1.50015 1.50015 0 0 0 32.486328 27.978516 z M 15.5 30 A 1.50015 1.50015 0 1 0 15.5 33 L 21.5 33 A 1.50015 1.50015 0 1 0 21.5 30 L 15.5 30 z"/></symbol>
</svg>
